<svg width="17" height="17" viewBox="0 0 17 17" fill="none" xmlns="http://www.w3.org/2000/svg">
    <g clip-path="url(#clip0_162_1442)">
    <path d="M1.77148 4.25008C1.77148 3.15894 1.77148 2.61337 2.01708 2.21258C2.15451 1.98832 2.34306 1.79977 2.56732 1.66235C2.9681 1.41675 3.51367 1.41675 4.60482 1.41675C5.69596 1.41675 6.24153 1.41675 6.64231 1.66235C6.86657 1.79977 7.05512 1.98832 7.19255 2.21258C7.43815 2.61337 7.43815 3.15894 7.43815 4.25008C7.43815 5.34123 7.43815 5.8868 7.19255 6.28758C7.05512 6.51184 6.86657 6.70039 6.64231 6.83782C6.24153 7.08341 5.69596 7.08341 4.60482 7.08341C3.51367 7.08341 2.9681 7.08341 2.56732 6.83782C2.34306 6.70039 2.15451 6.51184 2.01708 6.28758C1.77148 5.8868 1.77148 5.34123 1.77148 4.25008Z" stroke="#9A9AAB" stroke-width="1.5"/>
    <path d="M2.679 10.4705C3.42052 9.72898 3.79129 9.35821 4.23056 9.25275C4.47636 9.19374 4.73263 9.19374 4.97842 9.25275C5.4177 9.35821 5.78846 9.72898 6.52999 10.4705C7.27151 11.212 7.64227 11.5828 7.74773 12.0221C7.80674 12.2679 7.80675 12.5241 7.74773 12.7699C7.64227 13.2092 7.27151 13.58 6.52999 14.3215C5.78846 15.063 5.4177 15.4338 4.97842 15.5392C4.73263 15.5982 4.47636 15.5982 4.23056 15.5392C3.79129 15.4338 3.42052 15.063 2.679 14.3215C1.93747 13.58 1.56671 13.2092 1.46125 12.7699C1.40224 12.5241 1.40224 12.2679 1.46125 12.0221C1.56671 11.5828 1.93747 11.212 2.679 10.4705Z" stroke="#9A9AAB" stroke-width="1.5"/>
    <path d="M9.91699 12.7501C9.91699 11.6589 9.91699 11.1134 10.1626 10.7126C10.3 10.4883 10.4886 10.2998 10.7128 10.1623C11.1136 9.91675 11.6592 9.91675 12.7503 9.91675C13.8415 9.91675 14.387 9.91675 14.7878 10.1623C15.0121 10.2998 15.2006 10.4883 15.3381 10.7126C15.5837 11.1134 15.5837 11.6589 15.5837 12.7501C15.5837 13.8412 15.5837 14.3868 15.3381 14.7876C15.2006 15.0118 15.0121 15.2004 14.7878 15.3378C14.387 15.5834 13.8415 15.5834 12.7503 15.5834C11.6592 15.5834 11.1136 15.5834 10.7128 15.3378C10.4886 15.2004 10.3 15.0118 10.1626 14.7876C9.91699 14.3868 9.91699 13.8412 9.91699 12.7501Z" stroke="#9A9AAB" stroke-width="1.5"/>
    <path d="M12.7503 1.41675V7.08341M15.5837 4.25008L9.91699 4.25008" stroke="#9A9AAB" stroke-width="1.5" stroke-linecap="round" stroke-linejoin="round"/>
    </g>
    <defs>
    <clipPath id="clip0_162_1442">
    <rect width="17" height="17" fill="white"/>
    </clipPath>
    </defs>
    </svg>
    