<svg width="20" height="20" viewBox="0 0 20 20" fill="none" xmlns="http://www.w3.org/2000/svg">
    <path fill-rule="evenodd" clip-rule="evenodd" d="M9.6875 2.60417C7.84655 2.60417 6.35417 4.09655 6.35417 5.9375V6.35417C6.35417 6.8144 5.98107 7.1875 5.52083 7.1875C5.0606 7.1875 4.6875 6.8144 4.6875 6.35417V5.9375C4.6875 3.17608 6.92608 0.9375 9.6875 0.9375C12.4489 0.9375 14.6875 3.17608 14.6875 5.9375V6.35417C14.6875 6.8144 14.3144 7.1875 13.8542 7.1875C13.3939 7.1875 13.0208 6.8144 13.0208 6.35417V5.9375C13.0208 4.09655 11.5284 2.60417 9.6875 2.60417Z" fill="#3C8EF9"/>
    <path fill-rule="evenodd" clip-rule="evenodd" d="M14.6872 10.7292C15.1474 10.7292 15.5205 11.1023 15.5205 11.5626V14.0626H18.0205C18.4807 14.0626 18.8538 14.4357 18.8538 14.8959C18.8538 15.3562 18.4807 15.7292 18.0205 15.7292H15.5205V18.2292C15.5205 18.6895 15.1474 19.0626 14.6872 19.0626C14.2269 19.0626 13.8538 18.6895 13.8538 18.2292V15.7292H11.3538C10.8936 15.7292 10.5205 15.3562 10.5205 14.8959C10.5205 14.4357 10.8936 14.0626 11.3538 14.0626H13.8538L13.8538 11.5626C13.8538 11.1023 14.2269 10.7292 14.6872 10.7292Z" fill="#3C8EF9"/>
    <path d="M3.4667 5.52076C3.05653 5.52071 2.68281 5.52066 2.38368 5.56439C2.0548 5.61247 1.70447 5.72746 1.44342 6.04621C1.18521 6.36149 1.13708 6.72672 1.14662 7.05881C1.15543 7.3656 1.21841 7.74108 1.28852 8.15903L2.30484 14.2217C2.46538 15.1795 2.59525 15.9542 2.77394 16.5599C2.9596 17.1892 3.21786 17.7109 3.68263 18.1135C4.1493 18.5178 4.69851 18.6934 5.34002 18.7755C5.95376 18.8541 6.72079 18.8541 7.66342 18.8541H11.7109C12.0642 18.8541 12.3928 18.8541 12.6979 18.85C12.6368 18.6539 12.6038 18.4453 12.6038 18.2291V16.9791H11.3538C10.2032 16.9791 9.27051 16.0463 9.27051 14.8958C9.27051 13.7452 10.2032 12.8124 11.3538 12.8124H12.6038V11.5624C12.6038 10.4118 13.5366 9.47909 14.6872 9.47909C15.8378 9.47909 16.7705 10.4118 16.7705 11.5624V12.8124H17.3057L18.0858 8.159C18.1559 7.74106 18.2189 7.36559 18.2277 7.05881C18.2373 6.72672 18.1891 6.36149 17.9309 6.04621C17.6699 5.72746 17.3195 5.61247 16.9907 5.56439C16.6915 5.52066 16.3178 5.52071 15.9076 5.52076H3.4667Z" fill="#3C8EF9"/>
    </svg>
    