<svg width="20" height="20" viewBox="0 0 20 20" fill="none" xmlns="http://www.w3.org/2000/svg">
    <path fill-rule="evenodd" clip-rule="evenodd" d="M1.875 5.41683L1.875 14.3012C1.875 15.2349 2.55612 15.8559 3.39444 16.3589C4.2431 16.8682 5.66752 17.4699 7.24511 18.1363L7.24511 18.1363C8.42764 18.6362 9.18997 18.9585 10 18.9585C10.81 18.9585 11.5724 18.6362 12.7549 18.1363L12.7549 18.1363C14.3325 17.4699 15.7569 16.8681 16.6056 16.3589C17.4439 15.8559 18.125 15.2349 18.125 14.3012V5.41683C18.125 5.25821 18.0659 5.11339 17.9685 5.00319L15.2238 6.33577L12.7895 7.51372C11.233 8.26691 10.6313 8.54183 10 8.54183C9.36868 8.54183 8.76703 8.26691 7.2105 7.51372L4.77616 6.33577L2.03146 5.00319C1.93409 5.11339 1.875 5.25821 1.875 5.41683ZM5.27965 9.44105C4.97091 9.28668 4.59549 9.41182 4.44112 9.72056C4.28675 10.0293 4.41189 10.4047 4.72063 10.5591L6.3873 11.3924C6.69603 11.5468 7.07145 11.4216 7.22582 11.1129C7.38019 10.8042 7.25505 10.4288 6.94631 10.2744L5.27965 9.44105Z" fill="#FF9F38"/>
    <path fill-rule="evenodd" clip-rule="evenodd" d="M10 1.04199C9.02295 1.04199 8.12959 1.46574 6.82573 2.08421L4.23232 3.31287C3.62835 3.59893 3.09583 3.85115 2.72117 4.0989C2.34606 4.34696 1.875 4.75382 1.875 5.41699C1.875 6.08016 2.34606 6.48702 2.72117 6.73508C3.09583 6.98284 3.62834 7.23505 4.2323 7.52111L6.82574 8.74978C8.12959 9.36824 9.02295 9.79199 10 9.79199C10.977 9.79199 11.8704 9.36824 13.1743 8.74978L15.7677 7.52113C16.3716 7.23506 16.9042 6.98284 17.2788 6.73508C17.6539 6.48702 18.125 6.08016 18.125 5.41699C18.125 4.75382 17.6539 4.34696 17.2788 4.0989C16.9042 3.85114 16.3716 3.59892 15.7677 3.31286L13.1743 2.08421C11.8704 1.46574 10.9771 1.04199 10 1.04199ZM7.36877 3.59531C8.90398 2.86803 9.44197 2.63379 10.0001 2.63379C10.5109 2.63379 11.0049 2.83006 12.2624 3.4211L5.89058 6.54017L4.9953 6.11604C4.31972 5.796 3.89647 5.59324 3.63118 5.41788C3.89647 5.24252 4.31972 5.03976 4.9953 4.71971L7.36877 3.59531ZM7.73773 7.41466L14.1095 4.29559L15.0048 4.71971C15.6804 5.03976 16.1036 5.24252 16.3689 5.41788C16.1036 5.59324 15.6804 5.796 15.0048 6.11604L12.6313 7.24045C11.0961 7.96773 10.5582 8.20197 10.0001 8.20197C9.4892 8.20197 8.99518 8.0057 7.73773 7.41466Z" fill="#FF9F38"/>
    </svg>
    