<svg width="20" height="20" viewBox="0 0 20 20" fill="none" xmlns="http://www.w3.org/2000/svg">
    <path fill-rule="evenodd" clip-rule="evenodd" d="M4.21033 2.94799C3.98955 2.91842 3.68464 2.91667 3.16764 2.91667H2.08333C1.6231 2.91667 1.25 2.54358 1.25 2.08334C1.25 1.6231 1.6231 1.25001 2.08333 1.25001H3.16764C3.18368 1.25001 3.19968 1.25001 3.21564 1.25C3.66821 1.24995 4.08681 1.24989 4.43159 1.29607C4.81582 1.34754 5.21074 1.46724 5.55009 1.78085C5.88433 2.08975 6.04049 2.47243 6.13483 2.84863C6.22168 3.19498 6.276 3.62531 6.33636 4.10346C6.33825 4.11842 6.34014 4.13344 6.34205 4.1485L7.28153 11.5861C7.3712 12.2959 7.43048 12.7539 7.51475 13.09C7.59427 13.4071 7.67157 13.5064 7.72807 13.5586C7.77946 13.6061 7.86806 13.667 8.15783 13.7058C8.47489 13.7483 8.9033 13.75 9.58496 13.75H17.9167C18.3769 13.75 18.75 14.1231 18.75 14.5833C18.75 15.0436 18.3769 15.4167 17.9167 15.4167L9.53321 15.4167C8.91895 15.4167 8.37745 15.4168 7.93657 15.3577C7.45606 15.2934 6.99206 15.1479 6.59689 14.7827C6.20683 14.4222 6.01732 13.9706 5.89814 13.4954C5.78649 13.0501 5.7159 12.4911 5.63409 11.8431L4.68852 4.35737C4.62062 3.81983 4.57766 3.49106 4.51822 3.25403C4.46478 3.04093 4.42158 3.00697 4.41902 3.00496C4.41896 3.00491 4.41904 3.00497 4.41902 3.00496C4.41458 3.00085 4.40898 2.99574 4.38884 2.98768C4.36307 2.97738 4.31073 2.96144 4.21033 2.94799Z" fill="#9D55E5"/>
    <path d="M8.33301 17.0834C8.33301 16.1629 9.0792 15.4167 9.99967 15.4167C10.9201 15.4167 11.6663 16.1629 11.6663 17.0834C11.6663 18.0039 10.9201 18.7501 9.99967 18.7501C9.0792 18.7501 8.33301 18.0039 8.33301 17.0834Z" fill="#9D55E5"/>
    <path d="M14.167 17.0834C14.167 16.1629 14.9132 15.4167 15.8337 15.4167C16.7541 15.4167 17.5003 16.1629 17.5003 17.0834C17.5003 18.0039 16.7541 18.7501 15.8337 18.7501C14.9132 18.7501 14.167 18.0039 14.167 17.0834Z" fill="#9D55E5"/>
    <path fill-rule="evenodd" clip-rule="evenodd" d="M16.7041 3.4C16.2084 3.33337 15.5841 3.33339 14.8354 3.33341H14.8353H13.082H13.082C12.3332 3.33339 11.7089 3.33337 11.2133 3.4C10.6901 3.47034 10.2178 3.62507 9.83821 4.00462C9.45865 4.38418 9.30393 4.85652 9.23359 5.37968C9.16695 5.87532 9.16697 6.49965 9.16699 7.24836V7.24839V7.24841V9.00174V9.00177V9.0018C9.16697 9.75051 9.16695 10.3748 9.23359 10.8705C9.30393 11.3936 9.45865 11.866 9.83821 12.2455C10.2178 12.6251 10.6901 12.7798 11.2133 12.8502C11.7089 12.9168 12.3332 12.9168 13.0819 12.9167H13.082H13.082H14.8353H14.8354H14.8354C15.5841 12.9168 16.2084 12.9168 16.7041 12.8502C17.2272 12.7798 17.6996 12.6251 18.0791 12.2455C18.4587 11.866 18.6134 11.3936 18.6837 10.8705C18.7504 10.3748 18.7504 9.7505 18.7503 9.00178V9.00174V7.24842V7.24838C18.7504 6.49966 18.7504 5.87532 18.6837 5.37968C18.6134 4.85652 18.4587 4.38418 18.0791 4.00463C17.6996 3.62507 17.2272 3.47034 16.7041 3.4ZM13.125 5C12.7798 5 12.5 5.27982 12.5 5.625C12.5 5.97018 12.7798 6.25 13.125 6.25H14.7917C15.1368 6.25 15.4167 5.97018 15.4167 5.625C15.4167 5.27982 15.1368 5 14.7917 5H13.125Z" fill="#9D55E5"/>
    </svg>
    