<svg width="20" height="20" viewBox="0 0 20 20" fill="none" xmlns="http://www.w3.org/2000/svg">
    <path fill-rule="evenodd" clip-rule="evenodd" d="M3.62983 6.27381C3.59865 6.29297 3.57285 6.30986 3.5516 6.32452C3.51304 6.35114 3.49043 6.39461 3.47884 6.44001C3.45449 6.53536 3.47945 6.64287 3.56472 6.69199C3.84781 6.85508 4.23993 7.04535 4.77552 7.30376L7.20985 8.47826C8.76621 9.22917 9.3682 9.5035 10 9.5035C10.6318 9.5035 11.2338 9.22917 12.7901 8.47826L15.2245 7.30376C15.7601 7.04535 16.1522 6.85508 16.4353 6.69199C16.5206 6.64286 16.5455 6.53536 16.5212 6.44001C16.5096 6.39461 16.487 6.35114 16.4484 6.32452C16.4272 6.30986 16.4014 6.29297 16.3702 6.27381C16.1049 6.11083 15.6815 5.92241 15.0056 5.62495L13.7094 5.0545C13.3053 4.87664 13.1357 4.4336 13.3307 4.06494C13.5257 3.69629 14.0114 3.54163 14.4156 3.71949L15.7668 4.31419C16.3708 4.57994 16.9033 4.81422 17.2779 5.04437C17.6524 5.27445 18.125 5.65299 18.125 6.27122V14.417C18.125 15.3499 17.4426 15.9694 16.6049 16.4707C15.7563 16.9784 14.3322 17.5782 12.7546 18.2427C11.5717 18.7413 10.8097 19.0625 10 19.0625C9.19032 19.0625 8.42824 18.7413 7.24543 18.2427C5.66783 17.5782 4.24375 16.9784 3.39513 16.4707C2.5574 15.9694 1.875 15.3499 1.875 14.417L1.875 6.27122C1.875 5.65299 2.34757 5.27445 2.72209 5.04437C3.09672 4.81422 3.68428 4.55569 4.28827 4.28994L5.58443 3.71949C5.98858 3.54163 6.47429 3.69629 6.66928 4.06494C6.86427 4.4336 6.69472 4.87664 6.29057 5.0545L4.9944 5.62495C4.31851 5.92241 3.89513 6.11083 3.62983 6.27381ZM5.27899 10.4011C4.97008 10.2471 4.5948 10.3727 4.44079 10.6816C4.28679 10.9905 4.41237 11.3658 4.72128 11.5198L6.38795 12.3507C6.69687 12.5047 7.07214 12.3791 7.22615 12.0702C7.38015 11.7613 7.25458 11.386 6.94566 11.232L5.27899 10.4011Z" fill="#FF3B30"/>
    <path fill-rule="evenodd" clip-rule="evenodd" d="M12.2559 1.18158C12.5814 1.50701 12.5814 2.03465 12.2559 2.36009L11.1785 3.4375L12.2559 4.51491C12.5814 4.84035 12.5814 5.36799 12.2559 5.69342C11.9305 6.01886 11.4028 6.01886 11.0774 5.69342L10 4.61601L8.92259 5.69342C8.59715 6.01886 8.06951 6.01886 7.74408 5.69342C7.41864 5.36799 7.41864 4.84035 7.74408 4.51491L8.82149 3.4375L7.74408 2.36009C7.41864 2.03465 7.41864 1.50701 7.74408 1.18158C8.06951 0.856141 8.59715 0.856141 8.92259 1.18158L10 2.25899L11.0774 1.18158C11.4028 0.856141 11.9305 0.856141 12.2559 1.18158Z" fill="#FF3B30"/>
    </svg>
    