<svg width="20" height="20" viewBox="0 0 20 20" fill="none" xmlns="http://www.w3.org/2000/svg">
    <path fill-rule="evenodd" clip-rule="evenodd" d="M6.50833 1.66675H13.4925C16.0667 1.66675 17.5 3.15008 17.5 5.69175V14.3001C17.5 16.8834 16.0667 18.3334 13.4925 18.3334H6.50833C3.975 18.3334 2.5 16.8834 2.5 14.3001V5.69175C2.5 3.15008 3.975 1.66675 6.50833 1.66675ZM6.73379 5.55008V5.54175H9.22462C9.58379 5.54175 9.87546 5.83341 9.87546 6.19091C9.87546 6.55841 9.58379 6.85008 9.22462 6.85008H6.73379C6.37462 6.85008 6.08379 6.55841 6.08379 6.20008C6.08379 5.84175 6.37462 5.55008 6.73379 5.55008ZM6.73379 10.6167H13.2671C13.6255 10.6167 13.9171 10.3251 13.9171 9.96675C13.9171 9.60841 13.6255 9.31591 13.2671 9.31591H6.73379C6.37462 9.31591 6.08379 9.60841 6.08379 9.96675C6.08379 10.3251 6.37462 10.6167 6.73379 10.6167ZM6.73379 14.4251H13.2671C13.5996 14.3917 13.8505 14.1076 13.8505 13.7751C13.8505 13.4334 13.5996 13.1501 13.2671 13.1167H6.73379C6.48379 13.0917 6.24212 13.2084 6.10879 13.4251C5.97546 13.6334 5.97546 13.9084 6.10879 14.1251C6.24212 14.3334 6.48379 14.4584 6.73379 14.4251Z" fill="#31572C"/>
    </svg>
    