<svg width="20" height="20" viewBox="0 0 20 20" fill="none" xmlns="http://www.w3.org/2000/svg">
<path fill-rule="evenodd" clip-rule="evenodd" d="M2.35751 4.2764C2.0641 4.40347 1.875 4.68698 1.875 4.99984V15.406L9.74616 18.9043C9.90777 18.9761 10.0922 18.9761 10.2538 18.9043L18.125 15.406V4.99984C18.125 4.68698 17.9359 4.40347 17.6425 4.2764L10.33 1.10974C10.1199 1.01876 9.8801 1.01876 9.67001 1.10974L2.35751 4.2764ZM6.3437 5.71681L4.68805 4.99984L10 2.6995L11.6557 3.41648L6.3437 5.71681ZM8.34425 6.58315L13.6562 4.28282L15.3119 4.99984L10 7.30017L8.34425 6.58315ZM5 10.4165L7.08333 11.6665V10.4165L5 9.1665V10.4165Z" fill="#AB8650"/>
</svg>
