<svg width="20" height="20" viewBox="0 0 20 20" fill="none" xmlns="http://www.w3.org/2000/svg">
    <path fill-rule="evenodd" clip-rule="evenodd" d="M3.62983 6.27392C3.60365 6.29 3.46478 6.39766 3.30133 6.52605C3.31636 6.53677 3.3326 6.54803 3.35011 6.55983C3.63768 6.7535 4.08861 6.97283 4.77552 7.30424L7.20985 8.47875C8.76621 9.22966 9.3682 9.50399 10 9.50399C10.6318 9.50399 11.2338 9.22966 12.7901 8.47875L15.2245 7.30425C15.9114 6.97283 16.3623 6.7535 16.6499 6.55983C16.6674 6.54803 16.6836 6.53677 16.6987 6.52605C16.5352 6.39766 16.3964 6.29 16.3702 6.27392C16.1049 6.11094 15.6815 5.92251 15.0056 5.62505L13.7457 5.07056C13.3415 4.89269 13.172 4.44965 13.367 4.081C13.5619 3.71234 14.0476 3.55768 14.4518 3.73555L15.7668 4.31427L15.7668 4.31428C16.3708 4.58004 16.9033 4.81433 17.2779 5.04448C17.6524 5.27456 18.125 5.65309 18.125 6.27133C18.125 6.29169 18.1241 6.31187 18.1223 6.33182C18.1241 6.35095 18.125 6.37034 18.125 6.38994V14.4175C18.125 15.3504 17.4426 15.9699 16.6049 16.4711C15.7563 16.9789 14.3322 17.5787 12.7546 18.2432C11.5717 18.7418 10.8097 19.063 10 19.063C9.19032 19.063 8.42826 18.7418 7.24544 18.2432L7.24543 18.2432C5.66783 17.5787 4.24375 16.9789 3.39513 16.4711C2.5574 15.9699 1.875 15.3504 1.875 14.4175L1.875 6.38994C1.875 6.37034 1.8759 6.35095 1.87767 6.33182C1.8759 6.31187 1.875 6.29169 1.875 6.27133C1.875 5.65309 2.34757 5.27456 2.72209 5.04448C3.09672 4.81433 3.62919 4.58004 4.23317 4.31429L5.58443 3.7196C5.98858 3.54173 6.47429 3.6964 6.66928 4.06505C6.86427 4.4337 6.69472 4.87675 6.29057 5.05461L4.9944 5.62506C4.31851 5.92251 3.89513 6.11094 3.62983 6.27392ZM5.27586 10.5037C4.96608 10.3514 4.59152 10.4791 4.43924 10.7888C4.28697 11.0986 4.41465 11.4732 4.72442 11.6255L6.39109 12.4447C6.70086 12.597 7.07543 12.4693 7.2277 12.1595C7.37998 11.8498 7.2523 11.4752 6.94252 11.3229L5.27586 10.5037Z" fill="#8338EC"/>
    <path d="M12.3005 6.47851C12.5993 6.12845 12.5578 5.60246 12.2077 5.30366C12.0522 5.1709 11.8619 5.10534 11.6722 5.10417H10.8333L10.8333 1.77083C10.8333 1.3106 10.4603 0.9375 10 0.9375C9.53978 0.9375 9.16668 1.3106 9.16668 1.77083V5.10417H8.3278C8.13816 5.10533 7.94788 5.1709 7.79234 5.30366C7.44228 5.60246 7.40072 6.12845 7.69951 6.47851L8.53285 7.45482L8.56012 7.48679L8.56012 7.48679C8.73236 7.68872 8.91206 7.89939 9.08377 8.05288C9.27642 8.22509 9.57902 8.4375 10 8.4375C10.421 8.4375 10.7236 8.22509 10.9163 8.05288C11.088 7.89939 11.2677 7.68872 11.4399 7.48679L11.4399 7.48679L11.4672 7.45482L12.3005 6.47851Z" fill="#8338EC"/>
    </svg>
    