<svg width="20" height="20" viewBox="0 0 20 20" fill="none" xmlns="http://www.w3.org/2000/svg">
    <path fill-rule="evenodd" clip-rule="evenodd" d="M1.875 6.25025V14.9897L9.74616 18.488C9.90777 18.5598 10.0922 18.5598 10.2538 18.488L18.125 14.9897V6.25016C18.125 6.00317 17.9795 5.77919 17.7538 5.67887L14.0038 4.01221L13.4962 5.15447L15.9611 6.25001L10 8.89939L4.03888 6.25001L6.50384 5.15447L5.99616 4.01221L2.24616 5.67887C2.02046 5.77919 1.875 6.00326 1.875 6.25025ZM4.86328 11.2553L6.80426 12.2258V10.8282L4.86328 9.85775V11.2553Z" fill="#FF3B30"/>
    <path fill-rule="evenodd" clip-rule="evenodd" d="M9.11535 3.5671L7.89062 4.79183L8.77451 5.67571L9.99923 4.45099L11.224 5.67571L12.1078 4.79183L10.8831 3.5671L12.1078 2.34238L11.224 1.4585L9.99923 2.68322L8.77451 1.4585L7.89063 2.34238L9.11535 3.5671Z" fill="#FF3B30"/>
    </svg>
    