<svg width="17" height="17" viewBox="0 0 17 17" fill="none" xmlns="http://www.w3.org/2000/svg">
    <g clip-path="url(#clip0_162_1827)">
    <path d="M9.20866 15.5832C8.62911 15.5832 8.07545 15.3415 6.96814 14.8581C5.67573 14.294 4.68633 13.8621 3.99992 13.4582H1.41699M9.20866 15.5832C9.7882 15.5832 10.3419 15.3415 11.4492 14.8581C14.2055 13.655 15.5837 13.0534 15.5837 12.0415L15.5837 4.604M9.20866 15.5832L9.20866 7.7915M2.83366 4.604V6.729" stroke="#9A9AAB" stroke-width="1.34211" stroke-linecap="round" stroke-linejoin="round"/>
    <path d="M6.60651 6.86457L4.53732 5.86331C3.40176 5.31383 2.83398 5.03908 2.83398 4.604C2.83398 4.16892 3.40176 3.89418 4.53732 3.3447L6.60651 2.34344C7.88358 1.72548 8.52211 1.4165 9.20898 1.4165C9.89586 1.4165 10.5344 1.72548 11.8115 2.34344L13.8806 3.34469C15.0162 3.89418 15.584 4.16892 15.584 4.604C15.584 5.03908 15.0162 5.31383 13.8806 5.86331L11.8115 6.86457C10.5344 7.48252 9.89586 7.7915 9.20898 7.7915C8.52211 7.7915 7.88358 7.48252 6.60651 6.86457Z" stroke="#9A9AAB" stroke-width="1.34211" stroke-linecap="round" stroke-linejoin="round"/>
    <path d="M12.8474 2.84424L5.57324 6.36411" stroke="#9A9AAB" stroke-width="1.34211" stroke-linecap="round" stroke-linejoin="round"/>
    <path d="M1.41699 9.2085H3.54199" stroke="#9A9AAB" stroke-width="1.34211" stroke-linecap="round" stroke-linejoin="round"/>
    <path d="M1.41699 11.3335H3.54199" stroke="#9A9AAB" stroke-width="1.34211" stroke-linecap="round" stroke-linejoin="round"/>
    </g>
    <defs>
    <clipPath id="clip0_162_1827">
    <rect width="17" height="17" fill="white"/>
    </clipPath>
    </defs>
    </svg>
    