<svg width="17" height="17" viewBox="0 0 17 17" fill="none" xmlns="http://www.w3.org/2000/svg">
    <path d="M14.1032 10.9863H10.8945C10.7066 10.9863 10.5265 11.061 10.3936 11.1938C10.2608 11.3266 10.1862 11.5068 10.1862 11.6947C10.1862 11.8825 10.2608 12.0627 10.3936 12.1955C10.5265 12.3284 10.7066 12.403 10.8945 12.403H12.5945C11.8132 13.2195 10.8055 13.7838 9.70107 14.0232C8.5966 14.2627 7.44577 14.1665 6.39642 13.7469C5.34707 13.3273 4.44715 12.6035 3.81229 11.6686C3.17742 10.7336 2.83662 9.6302 2.83366 8.50008C2.83366 8.31222 2.75903 8.13205 2.62619 7.99921C2.49335 7.86638 2.31319 7.79175 2.12533 7.79175C1.93746 7.79175 1.7573 7.86638 1.62446 7.99921C1.49162 8.13205 1.41699 8.31222 1.41699 8.50008C1.42074 9.88331 1.8294 11.2352 2.59254 12.3889C3.35569 13.5425 4.43992 14.4475 5.71143 14.9921C6.98295 15.5367 8.38609 15.6971 9.74771 15.4535C11.1093 15.2099 12.3698 14.573 13.3737 13.6213V14.8751C13.3737 15.0629 13.4483 15.2431 13.5811 15.3759C13.714 15.5088 13.8941 15.5834 14.082 15.5834C14.2699 15.5834 14.45 15.5088 14.5829 15.3759C14.7157 15.2431 14.7903 15.0629 14.7903 14.8751V11.6876C14.7886 11.5046 14.7161 11.3293 14.588 11.1986C14.4599 11.0679 14.2862 10.9918 14.1032 10.9863ZM8.50033 1.41675C6.68443 1.42193 4.93988 2.12431 3.62699 3.37883V2.12508C3.62699 1.93722 3.55236 1.75705 3.41953 1.62421C3.28669 1.49138 3.10652 1.41675 2.91866 1.41675C2.7308 1.41675 2.55063 1.49138 2.41779 1.62421C2.28495 1.75705 2.21033 1.93722 2.21033 2.12508V5.31258C2.21033 5.50044 2.28495 5.68061 2.41779 5.81345C2.55063 5.94629 2.7308 6.02092 2.91866 6.02092H6.10616C6.29402 6.02092 6.47419 5.94629 6.60703 5.81345C6.73986 5.68061 6.81449 5.50044 6.81449 5.31258C6.81449 5.12472 6.73986 4.94455 6.60703 4.81171C6.47419 4.67888 6.29402 4.60425 6.10616 4.60425H4.40616C5.18707 3.78816 6.19406 3.22406 7.29786 2.98437C8.40166 2.74467 9.55191 2.84032 10.601 3.25903C11.65 3.67773 12.55 4.4004 13.1854 5.33426C13.8208 6.26812 14.1626 7.37056 14.167 8.50008C14.167 8.68794 14.2416 8.86811 14.3745 9.00095C14.5073 9.13379 14.6875 9.20842 14.8753 9.20842C15.0632 9.20842 15.2434 9.13379 15.3762 9.00095C15.509 8.86811 15.5837 8.68794 15.5837 8.50008C15.5837 7.56989 15.4004 6.6488 15.0445 5.78941C14.6885 4.93002 14.1667 4.14916 13.509 3.49141C12.8513 2.83366 12.0704 2.31191 11.211 1.95593C10.3516 1.59996 9.43052 1.41675 8.50033 1.41675Z" fill="#9A9AAB"/>
    </svg>
    