<svg width="18" height="19" viewBox="0 0 18 19" fill="none" xmlns="http://www.w3.org/2000/svg">
    <path d="M2.18399 4.05132L1.47006 3.82152H1.47006L2.18399 4.05132ZM1.6712 5.6445L2.38513 5.87429L1.6712 5.6445ZM15.816 4.05132L15.1021 4.28111V4.28111L15.816 4.05132ZM16.3288 5.6445L17.0427 5.4147L17.0427 5.4147L16.3288 5.6445ZM7.37569 7.32314C7.08467 7.02838 6.60981 7.02535 6.31505 7.31637C6.0203 7.60739 6.01727 8.08225 6.30829 8.37701L7.37569 7.32314ZM11.6918 7.32275C11.4009 7.02793 10.926 7.02479 10.6312 7.31574C10.3364 7.60669 10.3332 8.08155 10.6242 8.37637L11.6918 7.32275ZM1.7815 7.30253L2.3895 6.8634L2.3895 6.8634L1.7815 7.30253ZM8.33602 6.68818C8.43995 6.28722 8.19916 5.87792 7.7982 5.77399C7.39723 5.67006 6.98794 5.91085 6.884 6.31182L8.33602 6.68818ZM12.6515 6.68818C12.7555 6.28722 12.5147 5.87792 12.1137 5.77399C11.7128 5.67006 11.3035 5.91085 11.1995 6.31182L12.6515 6.68818ZM16.2185 7.30253L15.6105 6.8634V6.8634L16.2185 7.30253ZM16.4801 6.655L15.7391 6.53936L15.7391 6.53936L16.4801 6.655ZM1.51988 6.655L0.778845 6.77064V6.77064L1.51988 6.655ZM3.0413 2.28314L2.59268 1.68211L2.59268 1.68211L3.0413 2.28314ZM1.47006 3.82152L0.957269 5.4147L2.38513 5.87429L2.89792 4.28111L1.47006 3.82152ZM15.1021 4.28111L15.6149 5.87429L17.0427 5.4147L16.5299 3.82152L15.1021 4.28111ZM4.93216 2.75H13.0678V1.25H4.93216V2.75ZM8.9995 8C8.36226 8 7.78831 7.74106 7.37569 7.32314L6.30829 8.37701C6.99231 9.06982 7.9465 9.5 8.9995 9.5V8ZM13.316 8C12.6786 8 12.1045 7.7409 11.6918 7.32275L10.6242 8.37637C11.3083 9.06955 12.2627 9.5 13.316 9.5V8ZM4.68398 8C3.81522 8 2.86756 7.52531 2.3895 6.8634L1.1735 7.74166C1.94876 8.81506 3.36013 9.5 4.68398 9.5V8ZM6.884 6.31182C6.63309 7.27985 5.74495 8 4.68398 8V9.5C6.43853 9.5 7.91616 8.30799 8.33602 6.68818L6.884 6.31182ZM11.1995 6.31182C10.9486 7.27985 10.0605 8 8.9995 8V9.5C10.7541 9.5 12.2317 8.30799 12.6515 6.68818L11.1995 6.31182ZM15.6105 6.8634C15.1324 7.52531 14.1848 8 13.316 8V9.5C14.6399 9.5 16.0512 8.81506 16.8265 7.74166L15.6105 6.8634ZM15.6149 5.87429C15.7557 6.31188 15.7654 6.37102 15.7391 6.53936L17.2212 6.77065C17.3085 6.21114 17.1794 5.83922 17.0427 5.4147L15.6149 5.87429ZM16.8265 7.74166C16.8884 7.65589 16.9867 7.52412 17.0646 7.34901C17.1435 7.17139 17.1878 6.98441 17.2212 6.77064L15.7391 6.53936C15.7157 6.68952 15.6974 6.73177 15.6939 6.73966C15.6893 6.75007 15.6851 6.7601 15.6105 6.8634L16.8265 7.74166ZM16.5299 3.82153C16.3758 3.3426 16.2424 2.92456 16.0942 2.59482C15.9389 2.24904 15.7376 1.92867 15.4073 1.68211L14.5101 2.88416C14.5591 2.92074 14.6271 2.98944 14.726 3.20946C14.832 3.44553 14.9376 3.77 15.1021 4.28111L16.5299 3.82153ZM13.0678 2.75C13.5896 2.75 13.9157 2.75121 14.1608 2.7802C14.3852 2.80673 14.4633 2.84923 14.5101 2.88416L15.4073 1.68211C15.0748 1.43391 14.7113 1.33483 14.337 1.29058C13.9835 1.24879 13.5538 1.25 13.0678 1.25V2.75ZM0.957269 5.4147C0.82063 5.83922 0.691532 6.21114 0.778845 6.77064L2.26091 6.53936C2.23464 6.37102 2.24428 6.31188 2.38513 5.87429L0.957269 5.4147ZM2.3895 6.8634C2.31489 6.7601 2.31073 6.75007 2.3061 6.73966C2.30259 6.73177 2.28434 6.68951 2.26091 6.53936L0.778845 6.77064C0.812205 6.98442 0.856485 7.17139 0.935451 7.34901C1.0133 7.52412 1.11155 7.65589 1.1735 7.74166L2.3895 6.8634ZM2.89792 4.28111C3.06243 3.77 3.168 3.44553 3.27405 3.20946C3.37288 2.98945 3.44093 2.92074 3.48993 2.88416L2.59268 1.68211C2.26236 1.92867 2.06108 2.24904 1.90576 2.59482C1.75764 2.92456 1.62421 3.3426 1.47006 3.82152L2.89792 4.28111ZM4.93216 1.25C4.44619 1.25 4.01652 1.24879 3.66303 1.29058C3.28874 1.33483 2.92519 1.43391 2.59268 1.68211L3.48993 2.88416C3.53674 2.84923 3.61478 2.80673 3.83916 2.7802C4.08435 2.75121 4.41044 2.75 4.93216 2.75V1.25Z" fill="#9A9AAB"/>
    <path d="M2.25 8L2.25 11.75C2.25 13.8713 2.25 14.932 2.90901 15.591C3.56802 16.25 4.62868 16.25 6.75 16.25H9" stroke="#9A9AAB" stroke-width="1.5" stroke-linecap="round"/>
    <path d="M5.25 13.25H8.25" stroke="#9A9AAB" stroke-width="1.5" stroke-linecap="round"/>
    <path d="M13.875 10.625C15.3247 10.625 16.5 11.7782 16.5 13.2007C16.5 14.8098 14.9132 15.601 14.1562 16.8072C13.9949 17.0643 13.7667 17.0643 13.5938 16.8072C12.8131 15.6468 11.25 14.7763 11.25 13.2007C11.25 11.7782 12.4253 10.625 13.875 10.625Z" stroke="#9A9AAB" stroke-width="1.5" stroke-linejoin="round"/>
    <path d="M13.875 13.25L13.8817 13.25" stroke="#9A9AAB" stroke-width="2" stroke-linecap="round" stroke-linejoin="round"/>
    </svg>
    