<svg width="23" height="115" viewBox="0 0 23 149" fill="none" class="v-arrow"
                  xmlns="http://www.w3.org/2000/svg">
                  <path
                    d="M13 2C13 1.17157 12.3284 0.5 11.5 0.5C10.6716 0.5 10 1.17157 10 2H13ZM10.4393 148.061C11.0251 148.646 11.9749 148.646 12.5607 148.061L22.1066 138.515C22.6924 137.929 22.6924 136.979 22.1066 136.393C21.5208 135.808 20.5711 135.808 19.9853 136.393L11.5 144.879L3.01472 136.393C2.42893 135.808 1.47918 135.808 0.893398 136.393C0.307612 136.979 0.307612 137.929 0.893398 138.515L10.4393 148.061ZM10 2V147H13V2H10Z"
                    fill="#E3E3E3" />
                </svg>